<svg xmlns="http://www.w3.org/2000/svg" xmlns:xlink="http://www.w3.org/1999/xlink" preserveAspectRatio="xMidYMid" width="1280" height="320" viewBox="0 0 1280 320">
  <defs>
    <style>
      .cls-1 {
        fill: #403f3f;
      }

      .cls-1, .cls-2, .cls-3, .cls-4, .cls-5 {
        fill-rule: evenodd;
      }

      .cls-2 {
        fill: #888;
      }

      .cls-3 {
        fill: #5d5d5d;
      }

      .cls-4 {
        fill: #484848;
      }

      .cls-5 {
        fill: #fff;
      }
    </style>
  </defs>
  <path d="M1021.000,259.000 L1279.000,536.000 L1280.000,1.000 L1021.000,259.000 Z" class="cls-1"/>
  <path d="M-0.000,1.000 L316.000,319.000 L787.000,-1.000 L-0.000,1.000 Z" class="cls-1"/>
  <path d="M780.000,1.000 L1020.000,259.000 L1281.000,1.000 L780.000,1.000 Z" class="cls-2"/>
  <path d="M-60.000,348.000 L781.000,3.000 L1451.000,425.000 L-60.000,348.000 Z" class="cls-3"/>
  <path d="M-0.000,320.000 L360.000,174.000 L-1.000,-0.000 L-0.000,320.000 Z" class="cls-4"/>
  <path d="M-118.751,373.139 L-121.032,367.589 L807.408,-13.983 L809.688,-8.433 L-118.751,373.139 Z" class="cls-5"/>
  <path d="M762.151,-9.272 L765.345,-14.352 L1427.228,401.709 L1424.035,406.789 L762.151,-9.272 Z" class="cls-5"/>
  <path d="M1404.879,-127.121 L1409.121,-122.879 L1090.121,196.121 L1085.879,191.879 L1404.879,-127.121 Z" class="cls-5"/>
  <path d="M-102.001,-43.028 L-99.007,-49.005 L360.001,170.028 L357.007,176.005 L-102.001,-43.028 Z" class="cls-5"/>
</svg>
