<svg xmlns="http://www.w3.org/2000/svg" xmlns:xlink="http://www.w3.org/1999/xlink" preserveAspectRatio="xMidYMid" width="1280" height="536" viewBox="0 0 1280 536">
  <defs>
    <style>
      .cls-1 {
        fill: #403f3f;
      }

      .cls-1, .cls-2, .cls-3, .cls-4 {
        fill-rule: evenodd;
      }

      .cls-2 {
        fill: #888;
      }

      .cls-3 {
        fill: #5d5d5d;
      }

      .cls-4 {
        fill: #fff;
      }
    </style>
  </defs>
  <path d="M1021.000,259.000 L1279.000,536.000 L1280.000,1.000 L1021.000,259.000 Z" class="cls-1"/>
  <path d="M-0.000,1.000 L316.000,319.000 L787.000,-1.000 L-0.000,1.000 Z" class="cls-1"/>
  <path d="M780.000,1.000 L1020.000,259.000 L1281.000,1.000 L780.000,1.000 Z" class="cls-2"/>
  <path d="M1.000,536.000 L781.000,3.000 L1280.000,536.000 L1.000,536.000 Z" class="cls-3"/>
  <path d="M-1.000,537.000 L315.000,320.000 L-1.000,-0.000 L-1.000,537.000 Z" class="cls-2"/>
  <path d="M-46.308,571.478 L-49.692,566.522 L779.308,0.522 L782.692,5.478 L-46.308,571.478 Z" class="cls-4"/>
  <path d="M776.809,3.049 L781.191,-1.049 L1315.191,569.951 L1310.809,574.049 L776.809,3.049 Z" class="cls-4"/>
  <path d="M1347.405,-87.972 L1346.595,-82.027 L1236.595,-97.027 L1237.405,-102.972 L1347.405,-87.972 Z" class="cls-4"/>
  <path d="M1334.879,-60.121 L1339.121,-55.879 L1020.121,263.121 L1015.879,258.879 L1334.879,-60.121 Z" class="cls-4"/>
  <path d="M-3.128,2.115 L1.128,-2.115 L318.128,316.885 L313.872,321.115 L-3.128,2.115 Z" class="cls-4"/>
</svg>
